HIERARCHY
ROOT Hips
{
	OFFSET 0.000000 0.000000 0.000000
	CHANNELS 6 Xposition Yposition Zposition Zrotation Yrotation Xrotation 
	JOINT LHipJoint
	{
		OFFSET 0.000000 0.000000 0.000000
		CHANNELS 3 Zrotation Yrotation Xrotation
		JOINT LeftUpLeg
		{
			OFFSET 1.363060 -1.794630 0.839290
			CHANNELS 3 Zrotation Yrotation Xrotation
			JOINT LeftLeg
			{
				OFFSET 2.448110 -6.726130 0.000000
				CHANNELS 3 Zrotation Yrotation Xrotation
				JOINT LeftFoot
				{
					OFFSET 2.562200 -7.039590 0.000000
					CHANNELS 3 Zrotation Yrotation Xrotation
					JOINT LeftToeBase
					{
						OFFSET 0.157640 -0.433110 2.322550
						CHANNELS 3 Zrotation Yrotation Xrotation
						End Site
						{
							OFFSET 0.000000 0.000000 0.000000
						}
					}
				}
			}
		}
	}
	JOINT RHipJoint
	{
		OFFSET 0.000000 0.000000 0.000000
		CHANNELS 3 Zrotation Yrotation Xrotation
		JOINT RightUpLeg
		{
			OFFSET -1.305520 -1.794630 0.839290
			CHANNELS 3 Zrotation Yrotation Xrotation
			JOINT RightLeg
			{
				OFFSET -2.542530 -6.985550 0.000000
				CHANNELS 3 Zrotation Yrotation Xrotation
				JOINT RightFoot
				{
					OFFSET -2.568260 -7.056230 0.000000
					CHANNELS 3 Zrotation Yrotation Xrotation
					JOINT RightToeBase
					{
						OFFSET -0.164730 -0.452590 2.363150
						CHANNELS 3 Zrotation Yrotation Xrotation
						End Site
						{
							OFFSET 0.000000 0.000000 0.000000
						}
					}
				}
			}
		}
	}
	JOINT LowerBack
	{
		OFFSET 0.000000 0.000000 0.000000
		CHANNELS 3 Zrotation Yrotation Xrotation
		JOINT Spine
		{
			OFFSET 0.028270 2.035590 -0.193380
			CHANNELS 3 Zrotation Yrotation Xrotation
			JOINT Spine1
			{
				OFFSET 0.056720 2.048850 -0.042750
				CHANNELS 3 Zrotation Yrotation Xrotation
				JOINT Neck
				{
					OFFSET 0.000000 0.000000 0.000000
					CHANNELS 3 Zrotation Yrotation Xrotation
					JOINT Neck1
					{
						OFFSET -0.054170 1.746240 0.172020
						CHANNELS 3 Zrotation Yrotation Xrotation
						JOINT Head
						{
							OFFSET 0.104070 1.761360 -0.123970
							CHANNELS 3 Zrotation Yrotation Xrotation
							End Site
							{
								OFFSET 0.000000 0.000000 0.000000
							}
						}
					}
				}
				JOINT LeftShoulder
				{
					OFFSET 0.000000 0.000000 0.000000
					CHANNELS 3 Zrotation Yrotation Xrotation
					JOINT LeftArm
					{
						OFFSET 3.362410 1.200890 -0.311210
						CHANNELS 3 Zrotation Yrotation Xrotation
						JOINT LeftForeArm
						{
							OFFSET 4.983000 -0.000000 -0.000000
							CHANNELS 3 Zrotation Yrotation Xrotation
							JOINT LeftHand
							{
								OFFSET 3.483560 -0.000000 -0.000000
								CHANNELS 3 Zrotation Yrotation Xrotation
								JOINT LeftFingerBase
								{
									OFFSET 0.000000 0.000000 0.000000
									CHANNELS 3 Zrotation Yrotation Xrotation
									JOINT LeftHandIndex1
									{
										OFFSET 0.715260 -0.000000 -0.000000
										CHANNELS 3 Zrotation Yrotation Xrotation
										End Site
										{
											OFFSET 0.000000 0.000000 0.000000
										}
									}
								}
								JOINT LThumb
								{
									OFFSET 0.000000 0.000000 0.000000
									CHANNELS 3 Zrotation Yrotation Xrotation
									End Site
									{
										OFFSET 0.000000 0.000000 0.000000
									}
								}
							}
						}
					}
				}
				JOINT RightShoulder
				{
					OFFSET 0.000000 0.000000 0.000000
					CHANNELS 3 Zrotation Yrotation Xrotation
					JOINT RightArm
					{
						OFFSET -3.136600 1.374050 -0.404650
						CHANNELS 3 Zrotation Yrotation Xrotation
						JOINT RightForeArm
						{
							OFFSET -5.241900 -0.000000 -0.000000
							CHANNELS 3 Zrotation Yrotation Xrotation
							JOINT RightHand
							{
								OFFSET -3.444170 -0.000000 -0.000000
								CHANNELS 3 Zrotation Yrotation Xrotation
								JOINT RightFingerBase
								{
									OFFSET 0.000000 0.000000 0.000000
									CHANNELS 3 Zrotation Yrotation Xrotation
									JOINT RightHandIndex1
									{
										OFFSET -0.622530 -0.000000 -0.000000
										CHANNELS 3 Zrotation Yrotation Xrotation
										End Site
										{
											OFFSET 0.000000 0.000000 0.000000
										}
									}
								}
								JOINT RThumb
								{
									OFFSET 0.000000 0.000000 0.000000
									CHANNELS 3 Zrotation Yrotation Xrotation
									End Site
									{
										OFFSET 0.000000 0.000000 0.000000
									}
								}
							}
						}
					}
				}
			}
		}
	}
}
MOTION
Frames: 4
Frame Time: 0.008333
1.233035 17.787373 -35.786320 -5.429432 0.985061 8.233940 1.303319 0.784816 0.460897 -13.017395 -7.251302 -8.465540 1.155501 8.814230 25.241227 -0.051991 5.089036 -15.398968 0.332600 -3.706500 -10.252300 -4.053763 -1.033760 -1.074247 27.059684 5.821682 -6.345547 -1.775549 -7.907040 23.084929 -0.219486 -5.407704 -17.215754 -0.005900 -0.494400 1.358500 1.447431 -0.694631 -7.027895 1.809095 -1.547598 -3.039152 4.803319 -1.032744 1.913867 -1.580209 -1.544184 -15.891683 5.110215 -2.260471 9.593109 0.248200 -0.864600 7.571900 1.383541 4.685809 -0.776154 -92.436601 7.107612 22.060378 16.211329 -26.584797 -3.446426 0.487214 0.060514 4.910304 5.553346 43.020573 3.461600 -7.125000 0.000000 0.000000 -44.961900 67.951900 -26.819500 -0.233842 -5.162954 -1.903708 85.776158 -2.916015 25.396780 -11.688267 21.346876 -2.196327 0.918232 0.503399 -11.713512 -13.565132 17.131741 -4.282000 7.125000 0.000000 0.000000 8.808500 -12.862500 6.708200 
1.232021 17.788894 -35.791189 -5.544274 0.956480 8.253945 1.304215 0.782015 0.457201 -12.879827 -7.308735 -8.547972 1.178122 8.855025 25.363621 0.001871 4.866901 -15.538079 0.215200 -2.986300 -8.240500 -4.061331 -1.032371 -1.071242 27.202749 5.941745 -6.369368 -1.752964 -7.867515 22.954149 -0.196062 -5.588805 -17.237090 -0.005300 -0.467900 1.285700 1.570146 -0.703617 -7.029121 1.816462 -1.569004 -3.019341 4.751115 -1.047676 1.979348 -1.568589 -1.574982 -16.032495 5.157239 -2.302622 9.758587 0.263800 -0.872100 7.665300 1.380563 4.694607 -0.778497 -92.348337 6.911635 22.129542 16.149445 -26.497723 -3.417085 0.488293 0.061505 4.777040 5.597483 42.995716 3.489400 -7.125000 0.000000 0.000000 -44.876000 67.948500 -26.757100 -0.239377 -5.157294 -1.904822 85.797461 -2.857912 25.635904 -11.786554 21.528695 -2.241785 0.919344 0.502875 -11.701954 -13.555813 17.191764 -4.294300 7.125000 0.000000 0.000000 8.815200 -12.802200 6.724600 
1.234151 17.785649 -35.790682 -5.534903 0.962783 8.269997 1.303334 0.783799 0.460611 -12.903016 -7.316501 -8.579644 1.179065 8.867669 25.398081 -0.036408 5.066790 -15.540974 0.306000 -3.556600 -9.832600 -4.061594 -1.033320 -1.073862 27.186128 5.841691 -6.326131 -1.750382 -7.850916 22.912388 -0.202595 -5.483916 -17.141917 -0.002900 -0.345700 0.949800 1.553540 -0.706261 -7.005383 1.826828 -1.571766 -3.043945 4.805146 -1.046277 1.896167 -1.803112 -1.595275 -15.983060 5.355878 -2.283797 9.723953 0.391500 -0.858500 7.649000 1.374133 4.697759 -0.782109 -92.411741 6.975354 22.153742 16.169937 -26.514965 -3.413710 0.486079 0.062681 4.995312 5.505222 43.815047 3.480200 -7.125000 0.000000 0.000000 -46.494000 68.471500 -28.394200 -0.250569 -5.140905 -1.907065 85.733907 -2.941365 25.717671 -11.878186 21.685266 -2.289932 0.903208 0.518421 -11.807271 -13.645402 16.813767 -4.220300 7.125000 0.000000 0.000000 8.757500 -13.193500 6.606800 
1.237092 17.782403 -35.795956 -5.576957 0.921440 8.231530 1.304009 0.782986 0.459521 -12.886420 -7.483916 -8.510720 1.185038 8.885720 25.453080 -0.047536 5.147311 -15.594765 0.243600 -3.176200 -8.769700 -4.063663 -1.034451 -1.075466 27.205221 5.829782 -6.307413 -1.743230 -7.829937 22.849018 -0.205365 -5.417250 -17.065787 -0.007500 -0.558500 1.534800 1.641579 -0.739280 -6.999615 1.834181 -1.623216 -3.035652 4.747602 -1.070903 1.914795 -1.601893 -1.563243 -15.894837 5.102243 -2.276618 9.796699 0.254400 -0.866700 7.651000 1.385695 4.688168 -0.779461 -92.301501 7.150174 22.540526 16.303662 -26.702587 -3.474876 0.485216 0.068096 4.460247 5.514023 43.915209 3.492800 -7.125000 0.000000 0.000000 -46.677600 68.540400 -28.592000 -0.242707 -5.151252 -1.907825 85.701734 -2.867130 25.894070 -11.871571 21.674436 -2.283310 0.908969 0.516738 -11.826249 -13.695594 16.950189 -4.271600 7.125000 0.000000 0.000000 8.722600 -13.047900 6.606800 
